<svg xmlns="http://www.w3.org/2000/svg" height="40px" viewBox="0 -960 960 960" width="40px" fill="#434343"><path d="M690.58-54.15q-56.14 0-96.06-39.61-39.91-39.61-39.91-95.78 0-8.68 4.77-29.13L281.04-379.46q-18.78 17.06-41.66 26.3-22.88 9.25-48.94 9.25-57.12 0-96.71-39.99-39.58-39.99-39.58-96.41 0-56.42 39.53-96.6 39.54-40.18 96.59-40.18 26.1 0 49.15 9.8 23.06 9.79 41.61 25.74l277.78-159.26q-2.1-7.25-3.15-14.74-1.05-7.49-1.05-14.46 0-56.51 39.94-96.87 39.93-40.35 96.55-40.35 55.04 0 95.3 40.58 40.25 40.58 40.25 96.29 0 55.71-40.37 95.63-40.37 39.92-95.34 39.92-26.59 0-50.23-9.9-23.64-9.9-41.06-25.85L321.32-516.22q2.67 8.65 4.05 18.29 1.38 9.65 1.38 17.96 0 8.32-.64 16.9-.65 8.59-3.59 16.48l276.81 157.37q19.23-17.11 41.75-26.76 22.53-9.64 50.17-9.64 55.7 0 95.55 40.22 39.85 40.23 39.85 96.12 0 55.66-40.52 95.4-40.52 39.73-95.55 39.73Zm-.66-91.91q18.67 0 31.74-12.84 13.08-12.84 13.08-31.16 0-18.33-12.87-30.99t-32.27-12.66q-17.75 0-30.41 12.91-12.67 12.9-12.67 30.72 0 18.07 12.37 31.05 12.37 12.97 31.03 12.97ZM189.94-435.83q18.14 0 31.52-12.65 13.38-12.65 13.38-31.74 0-18.81-13.48-31.88t-31.67-13.07q-18.2 0-30.92 13.15-12.71 13.15-12.71 32 0 18.37 12.61 31.28 12.62 12.91 31.27 12.91Zm500.33-290.89q18.32 0 31.3-12.75 12.98-12.74 12.98-31.58 0-17.92-12.74-31.1-12.73-13.17-31.56-13.17t-31.56 13.24q-12.73 13.24-12.73 31.83 0 18.12 13 30.82 12.99 12.71 31.31 12.71Zm1.43 536.62ZM190.67-480.43Zm500.46-290.9Z"/></svg>